<svg xmlns="http://www.w3.org/2000/svg" xmlns:xlink="http://www.w3.org/1999/xlink" width="1920" zoomAndPan="magnify" viewBox="0 0 1440 809.999993" height="1080" preserveAspectRatio="xMidYMid meet" version="1.0"><rect x="-144" width="1728" fill="#ffffff" y="-80.999999" height="971.999992" fill-opacity="1"/><rect x="-144" width="1728" fill="#ffffff" y="-80.999999" height="971.999992" fill-opacity="1"/><rect x="-144" width="1728" fill="#ffffff" y="-80.999999" height="971.999992" fill-opacity="1"/><path stroke-linecap="round" transform="matrix(-0.750023, 0, 0, 0.75, 822.671149, 176.673791)" fill-opacity="1" fill="#253237" fill-rule="nonzero" stroke-linejoin="round" d="M 154.937077 48.330781 C 154.937077 48.330781 -154.939014 48.330781 -154.939014 48.330781 C -154.939014 48.330781 -154.939014 -48.330682 -154.939014 -48.330682 C -154.939014 -48.330682 154.937077 -48.330682 154.937077 -48.330682 C 154.937077 -48.330682 154.937077 48.330781 154.937077 48.330781 Z M 154.937077 48.330781 " stroke="#253237" stroke-width="2" stroke-opacity="1" stroke-miterlimit="4"/><path stroke-linecap="round" transform="matrix(-0.750023, 0, 0, 0.75, 839.512116, 462.253509)" fill-opacity="1" fill="#ffffff" fill-rule="nonzero" stroke-linejoin="round" d="M 305.90799 386.984924 C 305.90799 386.984924 -305.906931 386.984924 -305.906931 386.984924 C -305.906931 386.984924 -305.906931 -386.989073 -305.906931 -386.989073 C -305.906931 -386.989073 305.90799 -386.989073 305.90799 -386.989073 C 305.90799 -386.989073 305.90799 386.984924 305.90799 386.984924 Z M 305.90799 386.984924 " stroke="#253237" stroke-width="2" stroke-opacity="1" stroke-miterlimit="4"/><path stroke-linecap="round" transform="matrix(-0.750023, 0, 0, 0.75, 1078.427304, 462.253509)" fill-opacity="1" fill="#d4d4d4" fill-rule="nonzero" stroke-linejoin="round" d="M -12.633006 386.984924 C -12.633006 386.984924 12.637067 386.984924 12.637067 386.984924 C 12.637067 386.984924 12.637067 -386.989073 12.637067 -386.989073 C 12.637067 -386.989073 -12.633006 -386.989073 -12.633006 -386.989073 C -12.633006 -386.989073 -12.633006 386.984924 -12.633006 386.984924 Z M -12.633006 386.984924 " stroke="#253237" stroke-width="2" stroke-opacity="1" stroke-miterlimit="4"/><path stroke-linecap="round" transform="matrix(-0.750023, 0, 0, 0.75, 835.549068, 457.964997)" fill-opacity="1" fill="#ffffff" fill-rule="nonzero" stroke-linejoin="round" d="M 278.61954 359.07273 C 278.61954 359.07273 -278.618899 359.07273 -278.618899 359.07273 C -278.618899 359.07273 -278.618899 -359.073139 -278.618899 -359.073139 C -278.618899 -359.073139 278.61954 -359.073139 278.61954 -359.073139 C 278.61954 -359.073139 278.61954 359.07273 278.61954 359.07273 Z M 278.61954 359.07273 " stroke="#253237" stroke-width="2" stroke-opacity="1" stroke-miterlimit="4"/><path stroke-linecap="round" transform="matrix(-0.750023, 0, 0, 0.75, 801.335246, 163.879538)" fill-opacity="1" fill="#fbb040" fill-rule="nonzero" stroke-linejoin="round" d="M 154.931915 -31.271677 C 154.931915 -31.271677 154.931915 65.394994 154.931915 65.394994 C 154.931915 65.394994 -154.93376 65.394994 -154.93376 65.394994 C -154.93376 65.394994 -154.93376 -31.271677 -154.93376 -31.271677 C -154.93376 -31.271677 -88.743043 -31.271677 -88.743043 -31.271677 C -88.623255 -40.636261 -84.456714 -49.099803 -77.78504 -55.261262 C -71.003994 -61.521679 -61.639692 -65.391471 -51.301462 -65.391471 C -51.301462 -65.391471 51.299617 -65.391471 51.299617 -65.391471 C 71.809417 -65.391471 88.475582 -50.162303 88.741199 -31.271677 C 88.741199 -31.271677 154.931915 -31.271677 154.931915 -31.271677 Z M 154.931915 -31.271677 " stroke="#253237" stroke-width="2" stroke-opacity="1" stroke-miterlimit="4"/><path stroke-linecap="round" transform="matrix(-0.750023, 0, 0, 0.75, 980.340893, 309.821284)" fill-opacity="1" fill="#ffffff" fill-rule="nonzero" stroke-linejoin="round" d="M 36.010732 36.014331 C 36.010732 36.014331 -36.013142 36.014331 -36.013142 36.014331 C -36.013142 36.014331 -36.013142 -36.011714 -36.013142 -36.011714 C -36.013142 -36.011714 36.010732 -36.011714 36.010732 -36.011714 C 36.010732 -36.011714 36.010732 36.014331 36.010732 36.014331 Z M 36.010732 36.014331 " stroke="#253237" stroke-width="2" stroke-opacity="1" stroke-miterlimit="4"/><path stroke-linecap="round" transform="matrix(-0.750023, 0, 0, 0.75, 980.340893, 395.095548)" fill-opacity="1" fill="#ffffff" fill-rule="nonzero" stroke-linejoin="round" d="M 36.010732 36.013229 C 36.010732 36.013229 -36.013142 36.013229 -36.013142 36.013229 C -36.013142 36.013229 -36.013142 -36.012816 -36.013142 -36.012816 C -36.013142 -36.012816 36.010732 -36.012816 36.010732 -36.012816 C 36.010732 -36.012816 36.010732 36.013229 36.010732 36.013229 Z M 36.010732 36.013229 " stroke="#253237" stroke-width="2" stroke-opacity="1" stroke-miterlimit="4"/><path stroke-linecap="round" transform="matrix(-0.750023, 0, 0, 0.75, 980.340893, 480.369788)" fill-opacity="1" fill="#ffffff" fill-rule="nonzero" stroke-linejoin="round" d="M 36.010732 36.01216 C 36.010732 36.01216 -36.013142 36.01216 -36.013142 36.01216 C -36.013142 36.01216 -36.013142 -36.013886 -36.013142 -36.013886 C -36.013142 -36.013886 36.010732 -36.013886 36.010732 -36.013886 C 36.010732 -36.013886 36.010732 36.01216 36.010732 36.01216 Z M 36.010732 36.01216 " stroke="#253237" stroke-width="2" stroke-opacity="1" stroke-miterlimit="4"/><path stroke-linecap="round" transform="matrix(-0.750023, 0, 0, 0.75, 980.340893, 565.644016)" fill-opacity="1" fill="#ffffff" fill-rule="nonzero" stroke-linejoin="round" d="M 36.010732 36.011106 C 36.010732 36.011106 -36.013142 36.011106 -36.013142 36.011106 C -36.013142 36.011106 -36.013142 -36.009731 -36.013142 -36.009731 C -36.013142 -36.009731 36.010732 -36.009731 36.010732 -36.009731 C 36.010732 -36.009731 36.010732 36.011106 36.010732 36.011106 Z M 36.010732 36.011106 " stroke="#253237" stroke-width="2" stroke-opacity="1" stroke-miterlimit="4"/><path stroke-linecap="round" transform="matrix(-0.750023, 0, 0, 0.75, 980.340893, 650.918243)" fill-opacity="1" fill="#ffffff" fill-rule="nonzero" stroke-linejoin="round" d="M 36.010732 36.010052 C 36.010732 36.010052 -36.013142 36.010052 -36.013142 36.010052 C -36.013142 36.010052 -36.013142 -36.010784 -36.013142 -36.010784 C -36.013142 -36.010784 36.010732 -36.010784 36.010732 -36.010784 C 36.010732 -36.010784 36.010732 36.010052 36.010732 36.010052 Z M 36.010732 36.010052 " stroke="#253237" stroke-width="2" stroke-opacity="1" stroke-miterlimit="4"/><path stroke-linecap="butt" transform="matrix(-0.750023, 0, 0, 0.75, 800.919686, 299.303297)" fill-opacity="1" fill="#d4d4d4" fill-rule="nonzero" stroke-linejoin="miter" d="M 172.398143 4.168521 C 172.398143 4.168521 -172.398772 4.168521 -172.398772 4.168521 C -173.711233 4.168521 -174.778909 3.100813 -174.778909 1.783104 C -174.778909 1.783104 -174.778909 -1.784604 -174.778909 -1.784604 C -174.778909 -3.102313 -173.711233 -4.170021 -172.398772 -4.170021 C -172.398772 -4.170021 172.398143 -4.170021 172.398143 -4.170021 C 173.710604 -4.170021 174.77828 -3.102313 174.77828 -1.784604 C 174.77828 -1.784604 174.77828 1.783104 174.77828 1.783104 C 174.77828 3.100813 173.710604 4.168521 172.398143 4.168521 Z M 172.398143 4.168521 " stroke="#253237" stroke-width="2" stroke-opacity="1" stroke-miterlimit="10"/><path stroke-linecap="butt" transform="matrix(-0.750023, 0, 0, 0.75, 791.732726, 316.359028)" fill-opacity="1" fill="#d4d4d4" fill-rule="nonzero" stroke-linejoin="miter" d="M 184.643287 4.167129 C 184.643287 4.167129 -184.647683 4.167129 -184.647683 4.167129 C -185.960144 4.167129 -187.02782 3.099421 -187.02782 1.786921 C -187.02782 1.786921 -187.02782 -1.785996 -187.02782 -1.785996 C -187.02782 -3.098496 -185.960144 -4.166204 -184.647683 -4.166204 C -184.647683 -4.166204 184.643287 -4.166204 184.643287 -4.166204 C 185.960956 -4.166204 187.028632 -3.098496 187.028632 -1.785996 C 187.028632 -1.785996 187.028632 1.786921 187.028632 1.786921 C 187.028632 3.099421 185.960956 4.167129 184.643287 4.167129 Z M 184.643287 4.167129 " stroke="#253237" stroke-width="2" stroke-opacity="1" stroke-miterlimit="10"/><path stroke-linecap="butt" transform="matrix(-0.750023, 0, 0, 0.75, 800.919686, 386.567285)" fill-opacity="1" fill="#d4d4d4" fill-rule="nonzero" stroke-linejoin="miter" d="M 172.398143 4.165495 C 172.398143 4.165495 -172.398772 4.165495 -172.398772 4.165495 C -173.711233 4.165495 -174.778909 3.102995 -174.778909 1.785286 C -174.778909 1.785286 -174.778909 -1.782422 -174.778909 -1.782422 C -174.778909 -3.100131 -173.711233 -4.167839 -172.398772 -4.167839 C -172.398772 -4.167839 172.398143 -4.167839 172.398143 -4.167839 C 173.710604 -4.167839 174.77828 -3.100131 174.77828 -1.782422 C 174.77828 -1.782422 174.77828 1.785286 174.77828 1.785286 C 174.77828 3.102995 173.710604 4.165495 172.398143 4.165495 Z M 172.398143 4.165495 " stroke="#253237" stroke-width="2" stroke-opacity="1" stroke-miterlimit="10"/><path stroke-linecap="butt" transform="matrix(-0.750023, 0, 0, 0.75, 805.607366, 403.623048)" fill-opacity="1" fill="#d4d4d4" fill-rule="nonzero" stroke-linejoin="miter" d="M 166.148571 4.16927 C 166.148571 4.16927 -166.143513 4.16927 -166.143513 4.16927 C -167.461181 4.16927 -168.528857 3.101562 -168.528857 1.783853 C -168.528857 1.783853 -168.528857 -1.783855 -168.528857 -1.783855 C -168.528857 -3.101564 -167.461181 -4.169272 -166.143513 -4.169272 C -166.143513 -4.169272 166.148571 -4.169272 166.148571 -4.169272 C 167.461031 -4.169272 168.528708 -3.101564 168.528708 -1.783855 C 168.528708 -1.783855 168.528708 1.783853 168.528708 1.783853 C 168.528708 3.101562 167.461031 4.16927 166.148571 4.16927 Z M 166.148571 4.16927 " stroke="#253237" stroke-width="2" stroke-opacity="1" stroke-miterlimit="10"/><path stroke-linecap="butt" transform="matrix(-0.750023, 0, 0, 0.75, 800.919686, 471.841556)" fill-opacity="1" fill="#d4d4d4" fill-rule="nonzero" stroke-linejoin="miter" d="M 172.398143 4.169592 C 172.398143 4.169592 -172.398772 4.169592 -172.398772 4.169592 C -173.711233 4.169592 -174.778909 3.101883 -174.778909 1.784175 C -174.778909 1.784175 -174.778909 -1.783533 -174.778909 -1.783533 C -174.778909 -3.101242 -173.711233 -4.16895 -172.398772 -4.16895 C -172.398772 -4.16895 172.398143 -4.16895 172.398143 -4.16895 C 173.710604 -4.16895 174.77828 -3.101242 174.77828 -1.783533 C 174.77828 -1.783533 174.77828 1.784175 174.77828 1.784175 C 174.77828 3.101883 173.710604 4.169592 172.398143 4.169592 Z M 172.398143 4.169592 " stroke="#253237" stroke-width="2" stroke-opacity="1" stroke-miterlimit="10"/><path stroke-linecap="butt" transform="matrix(-0.750023, 0, 0, 0.75, 791.732726, 488.898019)" fill-opacity="1" fill="#d4d4d4" fill-rule="nonzero" stroke-linejoin="miter" d="M 184.643287 4.167224 C 184.643287 4.167224 -184.647683 4.167224 -184.647683 4.167224 C -185.960144 4.167224 -187.02782 3.099516 -187.02782 1.787016 C -187.02782 1.787016 -187.02782 -1.785901 -187.02782 -1.785901 C -187.02782 -3.098401 -185.960144 -4.166109 -184.647683 -4.166109 C -184.647683 -4.166109 184.643287 -4.166109 184.643287 -4.166109 C 185.960956 -4.166109 187.028632 -3.098401 187.028632 -1.785901 C 187.028632 -1.785901 187.028632 1.787016 187.028632 1.787016 C 187.028632 3.099516 185.960956 4.167224 184.643287 4.167224 Z M 184.643287 4.167224 " stroke="#253237" stroke-width="2" stroke-opacity="1" stroke-miterlimit="10"/><path stroke-linecap="butt" transform="matrix(-0.750023, 0, 0, 0.75, 794.64659, 557.116504)" fill-opacity="1" fill="#d4d4d4" fill-rule="nonzero" stroke-linejoin="miter" d="M 180.762931 4.167578 C 180.762931 4.167578 -180.762648 4.167578 -180.762648 4.167578 C -182.080317 4.167578 -183.142785 3.09987 -183.142785 1.78737 C -183.142785 1.78737 -183.142785 -1.785547 -183.142785 -1.785547 C -183.142785 -3.103255 -182.080317 -4.165756 -180.762648 -4.165756 C -180.762648 -4.165756 180.762931 -4.165756 180.762931 -4.165756 C 182.080599 -4.165756 183.143067 -3.103255 183.143067 -1.785547 C 183.143067 -1.785547 183.143067 1.78737 183.143067 1.78737 C 183.143067 3.09987 182.080599 4.167578 180.762931 4.167578 Z M 180.762931 4.167578 " stroke="#253237" stroke-width="2" stroke-opacity="1" stroke-miterlimit="10"/><path stroke-linecap="butt" transform="matrix(-0.750023, 0, 0, 0.75, 801.638222, 574.172223)" fill-opacity="1" fill="#d4d4d4" fill-rule="nonzero" stroke-linejoin="miter" d="M 171.439553 4.171411 C 171.439553 4.171411 -171.440753 4.171411 -171.440753 4.171411 C -172.753214 4.171411 -173.82089 3.103703 -173.82089 1.785994 C -173.82089 1.785994 -173.82089 -1.786923 -173.82089 -1.786923 C -173.82089 -3.099423 -172.753214 -4.167131 -171.440753 -4.167131 C -171.440753 -4.167131 171.439553 -4.167131 171.439553 -4.167131 C 172.757222 -4.167131 173.81969 -3.099423 173.81969 -1.786923 C 173.81969 -1.786923 173.81969 1.785994 173.81969 1.785994 C 173.81969 3.103703 172.757222 4.171411 171.439553 4.171411 Z M 171.439553 4.171411 " stroke="#253237" stroke-width="2" stroke-opacity="1" stroke-miterlimit="10"/><path stroke-linecap="butt" transform="matrix(-0.750023, 0, 0, 0.75, 800.919686, 642.390756)" fill-opacity="1" fill="#d4d4d4" fill-rule="nonzero" stroke-linejoin="miter" d="M 172.398143 4.166493 C 172.398143 4.166493 -172.398772 4.166493 -172.398772 4.166493 C -173.711233 4.166493 -174.778909 3.103993 -174.778909 1.786284 C -174.778909 1.786284 -174.778909 -1.786633 -174.778909 -1.786633 C -174.778909 -3.104341 -173.711233 -4.166841 -172.398772 -4.166841 C -172.398772 -4.166841 172.398143 -4.166841 172.398143 -4.166841 C 173.710604 -4.166841 174.77828 -3.104341 174.77828 -1.786633 C 174.77828 -1.786633 174.77828 1.786284 174.77828 1.786284 C 174.77828 3.103993 173.710604 4.166493 172.398143 4.166493 Z M 172.398143 4.166493 " stroke="#253237" stroke-width="2" stroke-opacity="1" stroke-miterlimit="10"/><path stroke-linecap="butt" transform="matrix(-0.750023, 0, 0, 0.75, 791.732726, 659.446571)" fill-opacity="1" fill="#d4d4d4" fill-rule="nonzero" stroke-linejoin="miter" d="M 184.643287 4.170197 C 184.643287 4.170197 -184.647683 4.170197 -184.647683 4.170197 C -185.960144 4.170197 -187.02782 3.102489 -187.02782 1.784781 C -187.02782 1.784781 -187.02782 -1.782928 -187.02782 -1.782928 C -187.02782 -3.100636 -185.960144 -4.168345 -184.647683 -4.168345 C -184.647683 -4.168345 184.643287 -4.168345 184.643287 -4.168345 C 185.960956 -4.168345 187.028632 -3.100636 187.028632 -1.782928 C 187.028632 -1.782928 187.028632 1.784781 187.028632 1.784781 C 187.028632 3.102489 185.960956 4.170197 184.643287 4.170197 Z M 184.643287 4.170197 " stroke="#253237" stroke-width="2" stroke-opacity="1" stroke-miterlimit="10"/><path stroke-linecap="round" transform="matrix(-0.750023, 0.000104392, 0.000104395, 0.75, 594.647256, 564.3904)" fill-opacity="1" fill="#253237" fill-rule="nonzero" stroke-linejoin="round" d="M 297.275937 0.000589684 C 297.277957 164.182889 164.180696 297.274338 -0.00186272 297.276357 C -164.179213 297.278376 -297.277067 164.182311 -297.279087 0.0000118041 C -297.275899 -164.182289 -164.178638 -297.273738 -0.00128695 -297.275756 C 164.181272 -297.277775 297.279126 -164.181711 297.275937 0.000589684 Z M 297.275937 0.000589684 " stroke="#253237" stroke-width="2" stroke-opacity="1" stroke-miterlimit="4"/><path stroke-linecap="round" transform="matrix(-0.750023, 0.000104392, 0.000104395, 0.75, 600.649248, 550.13584)" fill-opacity="1" fill="#ffffff" fill-rule="nonzero" stroke-linejoin="round" d="M 297.278593 0.00146003 C 297.275404 164.178552 164.183352 297.275209 0.000792915 297.277228 C -164.181767 297.274038 -297.274412 164.183182 -297.276431 0.000882145 C -297.278451 -164.181418 -164.181191 -297.278075 0.00136869 -297.274886 C 164.183928 -297.276905 297.276573 -164.18084 297.278593 0.00146003 Z M 297.278593 0.00146003 " stroke="#253237" stroke-width="2" stroke-opacity="1" stroke-miterlimit="4"/><path stroke-linecap="round" transform="matrix(-0.750023, 0.000104392, 0.000104395, 0.75, 600.648432, 550.13584)" fill-opacity="1" fill="#fbb040" fill-rule="nonzero" stroke-linejoin="round" d="M 231.258658 0.0002326 C 231.255603 127.718989 127.721047 231.259447 -0.00427624 231.256392 C -127.724391 231.258544 -231.25652 127.720866 -231.258673 0.00210987 C -231.255618 -127.721855 -127.721061 -231.257105 -0.000946987 -231.259257 C 127.719168 -231.256201 231.256506 -127.718524 231.258658 0.0002326 Z M 231.258658 0.0002326 " stroke="#253237" stroke-width="2" stroke-opacity="1" stroke-miterlimit="4"/><path stroke-linecap="round" transform="matrix(-0.750023, 0.000104392, 0.000104395, 0.75, 600.649248, 550.13584)" fill-opacity="1" fill="#ffffff" fill-rule="nonzero" stroke-linejoin="round" d="M 162.709726 -0.000642817 C 162.711818 89.863945 89.859567 162.71263 -0.00231289 162.709513 C -89.864192 162.711604 -162.710681 89.862365 -162.712773 -0.00222262 C -162.709656 -89.861603 -89.862613 -162.710287 -0.000734409 -162.712379 C 89.861144 -162.71447 162.712842 -89.865231 162.709726 -0.000642817 Z M 162.709726 -0.000642817 " stroke="#253237" stroke-width="2" stroke-opacity="1" stroke-miterlimit="4"/><path stroke-linecap="round" transform="matrix(-0.750023, 0.000104392, 0.000104395, 0.75, 600.649248, 550.135072)" fill-opacity="1" fill="#fbb040" fill-rule="nonzero" stroke-linejoin="round" d="M 85.852664 0.000662165 C 85.848847 47.417332 47.412645 85.849767 -0.00259436 85.851158 C -47.412626 85.852549 -85.849111 47.415189 -85.850503 -0.00148033 C -85.851894 -47.412941 -47.415692 -85.850584 -0.000452648 -85.851976 C 47.414787 -85.853367 85.851273 -47.410798 85.852664 0.000662165 Z M 85.852664 0.000662165 " stroke="#253237" stroke-width="2" stroke-opacity="1" stroke-miterlimit="4"/><path stroke-linecap="round" transform="matrix(-0.750023, 0.000104392, 0.000104395, 0.75, 408.228922, 319.887134)" fill-opacity="1" fill="#fbb040" fill-rule="nonzero" stroke-linejoin="round" d="M -26.523292 66.25835 C -26.523292 66.25835 -34.599585 2.837596 -34.599585 2.837596 C -34.599585 2.837596 29.956564 -66.254726 29.956564 -66.254726 C 29.956564 -66.254726 34.601366 2.182131 34.601366 2.182131 C 34.601366 2.182131 -26.523292 66.25835 -26.523292 66.25835 Z M -26.523292 66.25835 " stroke="#253237" stroke-width="2" stroke-opacity="1" stroke-miterlimit="4"/><path stroke-linecap="round" transform="matrix(-0.750023, 0.000104392, 0.000104395, 0.75, 373.380045, 354.050714)" fill-opacity="1" fill="#fbb040" fill-rule="nonzero" stroke-linejoin="round" d="M 65.573529 -29.753831 C 65.573529 -29.753831 0.0747578 -35.083256 0.0747578 -35.083256 C 0.0747578 -35.083256 -65.570727 28.066509 -65.570727 28.066509 C -65.570727 28.066509 0.0897324 35.083412 0.0897324 35.083412 C 0.0897324 35.083412 65.573529 -29.753831 65.573529 -29.753831 Z M 65.573529 -29.753831 " stroke="#253237" stroke-width="2" stroke-opacity="1" stroke-miterlimit="4"/><path stroke-linecap="round" transform="matrix(-0.750023, 0.000104392, 0.000104395, 0.75, 486.194454, 432.773758)" fill-opacity="1" fill="#ffffff" fill-rule="nonzero" stroke-linejoin="round" d="M 148.216697 -161.567941 C 138.004904 -151.217561 127.798317 -140.877598 117.586522 -130.532426 C 93.069884 -105.690471 68.558455 -80.848516 44.041817 -56.006561 C 14.510412 -26.085782 -15.020992 3.840205 -44.552397 33.760984 C -70.209464 59.759348 -95.861324 85.752503 -121.518392 111.745659 C -133.974593 124.372393 -146.998536 136.634623 -158.985938 149.714417 C -159.157782 149.901941 -159.345251 150.079051 -159.522304 150.261367 C -166.760649 157.5905 -155.457331 168.906635 -148.213779 161.567085 C -138.007193 151.221914 -127.795398 140.876742 -117.588812 130.531571 C -93.072175 105.689616 -68.555537 80.84766 -44.038899 56.005705 C -14.507494 26.084926 15.018702 -3.835852 44.550107 -33.761839 C 70.207175 -59.754994 95.859034 -85.753358 121.516102 -111.746514 C 133.972303 -124.373248 147.001454 -136.635479 158.983648 -149.715272 C 159.155492 -149.902796 159.342962 -150.074697 159.520015 -150.257014 C 166.758359 -157.591355 155.460249 -168.907491 148.216697 -161.567941 Z M 148.216697 -161.567941 " stroke="#253237" stroke-width="2" stroke-opacity="1" stroke-miterlimit="4"/><path stroke-linecap="round" transform="matrix(-0.750023, 0.0000407549, 0.0000407561, 0.75, 412.338321, 124.425556)" fill-opacity="1" fill="#ffffff" fill-rule="nonzero" stroke-linejoin="round" d="M -45.106821 59.367338 C -27.176701 29.335112 -24.66824 -5.263985 -36.071043 -43.982117 C -36.071043 -43.982117 29.832388 -59.371116 29.832388 -59.371116 C 45.104962 -18.88236 42.112292 18.513638 24.864713 53.498952 C 24.864713 53.498952 -45.106821 59.367338 -45.106821 59.367338 Z M -45.106821 59.367338 " stroke="#253237" stroke-width="2" stroke-opacity="1" stroke-miterlimit="4"/><path stroke-linecap="round" transform="matrix(-0.750023, 0.0000407549, 0.0000407561, 0.75, 412.123041, 96.505328)" fill="none" stroke-linejoin="round" d="M -24.532818 5.619229 C -24.532818 5.619229 24.532803 -5.617812 24.532803 -5.617812 " stroke="#253237" stroke-width="2" stroke-opacity="1" stroke-miterlimit="4"/><path stroke-linecap="round" transform="matrix(-0.750023, 0.0000407549, 0.0000407561, 0.75, 412.274289, 105.532318)" fill="none" stroke-linejoin="round" d="M -22.320838 4.994581 C -22.320838 4.994581 22.323109 -4.997429 22.323109 -4.997429 " stroke="#253237" stroke-width="2" stroke-opacity="1" stroke-miterlimit="4"/><path stroke-linecap="round" transform="matrix(-0.750023, 0.0000407549, 0.0000407561, 0.75, 409.672594, 120.25571)" fill="none" stroke-linejoin="round" d="M -25.070996 3.821874 C -25.070996 3.821874 25.067704 -3.821476 25.067704 -3.821476 " stroke="#253237" stroke-width="2" stroke-opacity="1" stroke-miterlimit="4"/><path stroke-linecap="round" transform="matrix(-0.750023, 0.0000407549, 0.0000407561, 0.75, 413.027913, 130.116517)" fill="none" stroke-linejoin="round" d="M -20.008924 2.403022 C -20.008924 2.403022 20.010443 -2.406444 20.010443 -2.406444 " stroke="#253237" stroke-width="2" stroke-opacity="1" stroke-miterlimit="4"/><path stroke-linecap="round" transform="matrix(-0.750023, 0.0000407549, 0.0000407561, 0.75, 411.692746, 140.545355)" fill="none" stroke-linejoin="round" d="M -25.721284 2.118008 C -25.721284 2.118008 25.719647 -2.119162 25.719647 -2.119162 " stroke="#253237" stroke-width="2" stroke-opacity="1" stroke-miterlimit="4"/><path stroke-linecap="round" transform="matrix(-0.743282, 0.100326, 0.100329, 0.74326, 525.67198, 238.565149)" fill-opacity="1" fill="#ffffff" fill-rule="nonzero" stroke-linejoin="round" d="M -61.243559 87.506591 C -38.02516 43.31606 -37.133199 -6.180388 -56.385511 -60.467945 C -56.385511 -60.467945 36.337968 -87.510243 36.337968 -87.510243 C 61.24098 -30.995006 59.872334 22.523227 38.014084 73.714524 C 38.014084 73.714524 -61.243559 87.506591 -61.243559 87.506591 Z M -61.243559 87.506591 " stroke="#253237" stroke-width="2" stroke-opacity="1" stroke-miterlimit="4"/><path stroke-linecap="round" transform="matrix(-0.743282, 0.100326, 0.100329, 0.74326, 523.299004, 198.272441)" fill="none" stroke-linejoin="round" d="M -34.522178 9.911491 C -34.522178 9.911491 34.522998 -9.908921 34.522998 -9.908921 " stroke="#253237" stroke-width="2" stroke-opacity="1" stroke-miterlimit="4"/><path stroke-linecap="round" transform="matrix(-0.743282, 0.100326, 0.100329, 0.74326, 524.54038, 211.096884)" fill="none" stroke-linejoin="round" d="M -31.423725 8.851778 C -31.423725 8.851778 31.42232 -8.84951 31.42232 -8.84951 " stroke="#253237" stroke-width="2" stroke-opacity="1" stroke-miterlimit="4"/><path stroke-linecap="round" transform="matrix(-0.743282, 0.100326, 0.100329, 0.74326, 522.513316, 232.338436)" fill="none" stroke-linejoin="round" d="M -35.430679 7.391126 C -35.430679 7.391126 35.430241 -7.387277 35.430241 -7.387277 " stroke="#253237" stroke-width="2" stroke-opacity="1" stroke-miterlimit="4"/><path stroke-linecap="round" transform="matrix(-0.743282, 0.100326, 0.100329, 0.74326, 528.408268, 245.985564)" fill="none" stroke-linejoin="round" d="M -28.329865 4.978619 C -28.329865 4.978619 28.330307 -4.976624 28.330307 -4.976624 " stroke="#253237" stroke-width="2" stroke-opacity="1" stroke-miterlimit="4"/><path stroke-linecap="round" transform="matrix(-0.743282, 0.100326, 0.100329, 0.74326, 527.694004, 260.973552)" fill="none" stroke-linejoin="round" d="M -36.491245 5.013766 C -36.491245 5.013766 36.487467 -5.015666 36.487467 -5.015666 " stroke="#253237" stroke-width="2" stroke-opacity="1" stroke-miterlimit="4"/><path stroke-linecap="round" transform="matrix(-0.724477, 0.194075, 0.194081, 0.724455, 569.498522, 78.246227)" fill-opacity="1" fill="#ffffff" fill-rule="nonzero" stroke-linejoin="round" d="M -1.895833 65.588961 C -3.792657 32.947174 -20.011291 4.869989 -49.14824 -19.099458 C -49.14824 -19.099458 -6.244012 -65.587101 -6.244012 -65.587101 C 26.817055 -42.286059 44.127477 -11.783793 49.147329 24.324168 C 49.147329 24.324168 -1.895833 65.588961 -1.895833 65.588961 Z M -1.895833 65.588961 " stroke="#253237" stroke-width="2" stroke-opacity="1" stroke-miterlimit="4"/><path stroke-linecap="round" transform="matrix(-0.724477, 0.194075, 0.194081, 0.724455, 575.766121, 50.981036)" fill="none" stroke-linejoin="round" d="M -16.026866 17.21726 C -16.026866 17.21726 16.027753 -17.219063 16.027753 -17.219063 " stroke="#253237" stroke-width="2" stroke-opacity="1" stroke-miterlimit="4"/><path stroke-linecap="round" transform="matrix(-0.724477, 0.194075, 0.194081, 0.724455, 573.129889, 58.997475)" fill="none" stroke-linejoin="round" d="M -14.642833 15.57825 C -14.642833 15.57825 14.644413 -15.582485 14.644413 -15.582485 " stroke="#253237" stroke-width="2" stroke-opacity="1" stroke-miterlimit="4"/><path stroke-linecap="round" transform="matrix(-0.724477, 0.194075, 0.194081, 0.724455, 566.315714, 71.200072)" fill="none" stroke-linejoin="round" d="M -17.386146 16.114383 C -17.386146 16.114383 17.385121 -16.111073 17.385121 -16.111073 " stroke="#253237" stroke-width="2" stroke-opacity="1" stroke-miterlimit="4"/><path stroke-linecap="round" transform="matrix(-0.724477, 0.194075, 0.194081, 0.724455, 566.253026, 80.936414)" fill="none" stroke-linejoin="round" d="M -14.213293 12.360802 C -14.213293 12.360802 14.216806 -12.358744 14.216806 -12.358744 " stroke="#253237" stroke-width="2" stroke-opacity="1" stroke-miterlimit="4"/><path stroke-linecap="round" transform="matrix(-0.724477, 0.194075, 0.194081, 0.724455, 561.87449, 89.735603)" fill="none" stroke-linejoin="round" d="M -18.78582 15.135438 C -18.78582 15.135438 18.783659 -15.138249 18.783659 -15.138249 " stroke="#253237" stroke-width="2" stroke-opacity="1" stroke-miterlimit="4"/><path stroke-linecap="round" transform="matrix(-0.750023, 0, 0, 0.75, 1127.627997, 475.622228)" fill-opacity="1" fill="#253237" fill-rule="nonzero" stroke-linejoin="round" d="M 60.465719 -16.053597 C 60.465719 -16.053597 60.465719 4.863071 60.465719 4.863071 C 23.711616 16.050572 -17.037157 14.675572 -60.468142 4.863071 C -60.468142 4.863071 -59.24422 -14.303596 -59.24422 -14.303596 C -12.766452 -7.215054 27.836492 -6.980679 60.465719 -16.053597 Z M 60.465719 -16.053597 " stroke="#253237" stroke-width="2" stroke-opacity="1" stroke-miterlimit="4"/><path stroke-linecap="round" transform="matrix(-0.750023, 0, 0, 0.75, 1128.284373, 508.112994)" fill-opacity="1" fill="#253237" fill-rule="nonzero" stroke-linejoin="round" d="M 61.34086 -38.457953 C 61.34086 -38.457953 67.470884 38.458718 67.470884 38.458718 C 67.470884 38.458718 -67.467763 38.458718 -67.467763 38.458718 C -67.467763 38.458718 -59.593 -38.457953 -59.593 -38.457953 C -59.593 -38.457953 61.34086 -38.457953 61.34086 -38.457953 Z M 61.34086 -38.457953 " stroke="#253237" stroke-width="2" stroke-opacity="1" stroke-miterlimit="4"/><path stroke-linecap="round" transform="matrix(-0.750023, 0, 0, 0.75, 1099.405487, 580.076943)" fill-opacity="1" fill="#253237" fill-rule="nonzero" stroke-linejoin="round" d="M 28.216883 -65.623427 C 28.216883 -65.623427 36.315598 63.793246 36.315598 63.793246 C 36.315598 63.793246 -21.437872 67.47033 -21.437872 67.47033 C -21.437872 67.47033 -36.317633 -67.467177 -36.317633 -67.467177 C -36.317633 -67.467177 28.216883 -65.623427 28.216883 -65.623427 Z M 28.216883 -65.623427 " stroke="#253237" stroke-width="2" stroke-opacity="1" stroke-miterlimit="4"/><path stroke-linecap="round" transform="matrix(-0.750023, 0, 0, 0.75, 1089.931127, 688.257753)" fill-opacity="1" fill="#253237" fill-rule="nonzero" stroke-linejoin="round" d="M 23.683499 -83.333259 C 23.683499 -83.333259 34.443592 75.229249 34.443592 75.229249 C 22.05334 82.015708 5.309052 83.333416 -16.22155 78.640708 C -16.22155 78.640708 -34.44496 -80.1718 -34.44496 -80.1718 C -34.44496 -80.1718 23.683499 -83.333259 23.683499 -83.333259 Z M 23.683499 -83.333259 " stroke="#253237" stroke-width="2" stroke-opacity="1" stroke-miterlimit="4"/><path stroke-linecap="round" transform="matrix(-0.750023, 0, 0, 0.75, 1155.915884, 582.782223)" fill-opacity="1" fill="#253237" fill-rule="nonzero" stroke-linejoin="round" d="M 41.829295 -66.0013 C 41.829295 -66.0013 16.975876 69.285165 16.975876 69.285165 C 16.975876 69.285165 -41.829646 63.86329 -41.829646 63.86329 C -41.829646 63.86329 -29.788341 -69.287759 -29.788341 -69.287759 C -29.788341 -69.287759 41.829295 -66.0013 41.829295 -66.0013 Z M 41.829295 -66.0013 " stroke="#253237" stroke-width="2" stroke-opacity="1" stroke-miterlimit="4"/><path stroke-linecap="round" transform="matrix(-0.750023, 0, 0, 0.75, 1170.640387, 688.742985)" fill-opacity="1" fill="#253237" fill-rule="nonzero" stroke-linejoin="round" d="M 37.071484 -74.521901 C 37.071484 -74.521901 7.905695 79.743732 7.905695 79.743732 C -6.906359 81.254149 -21.911116 79.478107 -37.072118 75.191648 C -37.072118 75.191648 -21.848618 -81.256276 -21.848618 -81.256276 C -21.848618 -81.256276 37.071484 -74.521901 37.071484 -74.521901 Z M 37.071484 -74.521901 " stroke="#253237" stroke-width="2" stroke-opacity="1" stroke-miterlimit="4"/><path stroke-linecap="round" transform="matrix(-0.750023, 0, 0, 0.75, 1063.486129, 764.726238)" fill-opacity="1" fill="#253237" fill-rule="nonzero" stroke-linejoin="round" d="M -6.325596 -28.041235 C -1.575739 -13.306859 10.73639 -2.890192 26.491124 5.562934 C 39.402194 13.693142 38.803254 20.052518 35.417939 26.036893 C 15.147716 28.042101 -9.263008 23.375434 -39.402726 9.500434 C -39.402726 9.500434 -39.402726 -28.041235 -39.402726 -28.041235 C -39.402726 -28.041235 -6.325596 -28.041235 -6.325596 -28.041235 Z M -6.325596 -28.041235 " stroke="#253237" stroke-width="2" stroke-opacity="1" stroke-miterlimit="4"/><path stroke-linecap="round" transform="matrix(-0.750023, 0, 0, 0.75, 1180.488115, 766.150469)" fill-opacity="1" fill="#253237" fill-rule="nonzero" stroke-linejoin="round" d="M 16.077419 -23.086044 C 16.077419 -23.086044 18.858586 -2.106876 18.858586 -2.106876 C 19.577314 3.335833 18.514846 8.919166 15.593059 13.575416 C 12.483777 18.523333 8.317236 22.59625 3.520505 26.132709 C 0.494555 28.367084 -3.583447 28.356667 -6.614606 26.1275 C -11.68737 22.398334 -15.91641 17.153542 -18.765282 9.445208 C -19.364222 7.820208 -19.577758 6.070208 -19.395472 4.351458 C -19.395472 4.351458 -15.978908 -28.367294 -15.978908 -28.367294 C -15.978908 -28.367294 16.077419 -23.086044 16.077419 -23.086044 Z M 16.077419 -23.086044 " stroke="#253237" stroke-width="2" stroke-opacity="1" stroke-miterlimit="4"/><path stroke-linecap="round" transform="matrix(-0.750023, 0, 0, 0.75, 1058.227681, 390.560976)" fill-opacity="1" fill="#d4d4d4" fill-rule="nonzero" stroke-linejoin="round" d="M -37.528629 -18.471928 C -37.528629 -18.471928 -14.404325 79.564536 -14.404325 79.564536 C -7.055588 108.142662 39.370098 96.205161 32.021361 67.627035 C 22.271654 2.19474 9.636618 -55.669846 -5.045232 -108.143807 C -28.143495 -90.857348 -39.367116 -61.37818 -37.528629 -18.471928 Z M -37.528629 -18.471928 " stroke="#253237" stroke-width="2" stroke-opacity="1" stroke-miterlimit="4"/><path stroke-linecap="round" transform="matrix(-0.750023, 0, 0, 0.75, 1131.237141, 377.739728)" fill-opacity="1" fill="#d4d4d4" fill-rule="nonzero" stroke-linejoin="round" d="M 93.985235 -90.397767 C 76.397223 -101.210268 59.178991 -110.621726 42.705528 -117.26756 C 42.705528 -117.26756 -34.646311 -123.564435 -34.646311 -123.564435 C -55.166526 -115.76756 -75.098218 -106.293601 -93.983067 -93.814434 C -93.983067 -93.814434 -54.426965 116.20641 -54.426965 116.20641 C -2.527486 123.117869 39.028556 123.565785 65.282974 114.45641 C 65.282974 114.45641 93.985235 -90.397767 93.985235 -90.397767 Z M 93.985235 -90.397767 " stroke="#253237" stroke-width="2" stroke-opacity="1" stroke-miterlimit="4"/><path stroke-linecap="butt" transform="matrix(-0.750023, 0, 0, 0.75, 1130.299629, 280.127994)" fill-opacity="1" fill="#ffffff" fill-rule="nonzero" stroke-linejoin="miter" d="M -26.052835 -39.748786 C -26.052835 -39.748786 -23.563327 -3.832117 -23.563327 -3.832117 C -23.563327 -3.832117 12.138724 39.751218 12.138724 39.751218 C 12.138724 39.751218 26.054972 13.761634 26.054972 13.761634 C 26.054972 13.761634 26.054972 -20.894618 26.054972 -20.894618 C 26.054972 -20.894618 -26.052835 -39.748786 -26.052835 -39.748786 Z M -26.052835 -39.748786 " stroke="#253237" stroke-width="2" stroke-opacity="1" stroke-miterlimit="10"/><path stroke-linecap="round" transform="matrix(-0.750023, 0, 0, 0.75, 1143.018573, 292.679244)" fill-opacity="1" fill="#d4d4d4" fill-rule="nonzero" stroke-linejoin="round" d="M 29.096805 23.016217 C 29.096805 23.016217 10.633819 12.776633 10.633819 12.776633 C 10.633819 12.776633 0.306004 27.47455 0.306004 27.47455 C 0.306004 27.47455 -29.099361 -11.900452 -29.099361 -11.900452 C -29.099361 -11.900452 -14.568548 -27.478577 -14.568548 -27.478577 C -14.568548 -27.478577 -7.084398 -27.478577 -7.084398 -27.478577 C -7.084398 -27.478577 -6.605246 -20.567119 -6.605246 -20.567119 C -6.605246 -20.567119 29.096805 23.016217 29.096805 23.016217 Z M 29.096805 23.016217 " stroke="#253237" stroke-width="2" stroke-opacity="1" stroke-miterlimit="4"/><path stroke-linecap="round" transform="matrix(-0.750023, 0, 0, 0.75, 1110.202102, 297.797993)" fill-opacity="1" fill="#d4d4d4" fill-rule="nonzero" stroke-linejoin="round" d="M -14.657172 16.191218 C -14.657172 16.191218 -1.824225 8.050593 -1.824225 8.050593 C -1.824225 8.050593 12.38368 22.399552 12.38368 22.399552 C 12.38368 22.399552 14.654445 -10.678575 14.654445 -10.678575 C 14.654445 -10.678575 -0.746133 -22.402533 -0.746133 -22.402533 C -0.746133 -22.402533 -0.746133 -9.803575 -0.746133 -9.803575 C -0.746133 -9.803575 -14.657172 16.191218 -14.657172 16.191218 Z M -14.657172 16.191218 " stroke="#253237" stroke-width="2" stroke-opacity="1" stroke-miterlimit="4"/><path stroke-linecap="round" transform="matrix(-0.750023, 0, 0, 0.75, 1123.011622, 313.582504)" fill-opacity="1" fill="#fbb040" fill-rule="nonzero" stroke-linejoin="round" d="M 12.114089 -11.000631 C 13.202598 -1.276672 12.14013 6.916036 8.853771 13.520203 C 8.853771 13.520203 -6.635346 13.520203 -6.635346 13.520203 C -11.103962 6.650411 -12.739329 -2.880839 -13.202857 -13.521465 C -13.202857 -13.521465 2.421673 -4.854798 2.421673 -4.854798 C 2.421673 -4.854798 12.114089 -11.000631 12.114089 -11.000631 Z M 12.114089 -11.000631 " stroke="#253237" stroke-width="2" stroke-opacity="1" stroke-miterlimit="4"/><path stroke-linecap="round" transform="matrix(-0.750023, 0, 0, 0.75, 1120.998574, 390.362228)" fill-opacity="1" fill="#fbb040" fill-rule="nonzero" stroke-linejoin="round" d="M 6.169788 -88.852766 C 6.169788 -88.852766 17.851728 -15.873596 17.851728 -15.873596 C 14.627867 16.928489 8.372846 52.517033 1.310559 88.855576 C -6.730866 55.740991 -14.069187 21.152448 -17.850323 -20.857971 C -17.850323 -20.857971 -9.319329 -88.852766 -9.319329 -88.852766 C -9.319329 -88.852766 6.169788 -88.852766 6.169788 -88.852766 Z M 6.169788 -88.852766 " stroke="#253237" stroke-width="2" stroke-opacity="1" stroke-miterlimit="4"/><path stroke-linecap="round" transform="matrix(-0.750023, 0, 0, 0.75, 1212.593609, 388.567472)" fill-opacity="1" fill="#d4d4d4" fill-rule="nonzero" stroke-linejoin="round" d="M 40.243393 -15.928505 C 40.243393 -15.928505 9.457861 79.97775 9.457861 79.97775 C -0.119976 107.88921 -45.462361 92.321501 -35.879316 64.415249 C -20.999556 -0.0430872 -3.843822 -56.73059 14.931655 -107.886843 C 36.592461 -88.82955 45.461986 -58.558715 40.243393 -15.928505 Z M 40.243393 -15.928505 " stroke="#253237" stroke-width="2" stroke-opacity="1" stroke-miterlimit="4"/><path stroke-linecap="round" transform="matrix(-0.750023, 0, 0, 0.75, 1130.300445, 265.99199)" fill-opacity="1" fill="#253237" fill-rule="nonzero" stroke-linejoin="round" d="M 24.972759 2.07318 C 24.972759 2.07318 24.972759 14.354431 24.972759 14.354431 C -1.693105 14.864848 -14.98958 3.489847 -24.973655 -14.864321 C -8.07833 -2.89557 7.363914 2.35443 24.972759 2.07318 Z M 24.972759 2.07318 " stroke="#253237" stroke-width="2" stroke-opacity="1" stroke-miterlimit="4"/><path stroke-linecap="butt" transform="matrix(-0.750022, 0.000476376, 0.00047639, 0.75, 999.542884, 333.877532)" fill-opacity="1" fill="#ffffff" fill-rule="nonzero" stroke-linejoin="miter" d="M -26.637498 20.247924 C -26.160336 8.914284 -23.38126 -2.577067 -19.524141 -14.147229 C -19.004323 -15.720476 -18.130275 -17.179365 -16.86537 -18.253085 C -14.814451 -19.988763 -12.663527 -20.073463 -10.438815 -18.783209 C -7.182502 -16.889444 -5.706084 -12.947672 -6.537056 -9.27006 C -6.537056 -9.27006 -9.471402 3.757849 -9.471402 3.757849 C -5.661243 0.25022 -2.538842 -3.694473 0.0781673 -7.951345 C 3.454783 -13.448282 4.455743 -20.089545 3.160103 -26.406432 C 3.144439 -26.468922 3.128774 -26.531412 3.118318 -26.593906 C 1.901052 -32.515009 8.267743 -37.097179 13.48827 -34.053619 C 14.097855 -33.694631 14.69704 -33.309595 15.296252 -32.882892 C 22.914035 -27.486688 26.638637 -18.098426 25.493515 -8.832071 C 24.550477 -1.196053 21.805536 6.639026 16.321286 14.777928 C 16.321286 14.777928 -2.075446 37.096911 -2.075446 37.096911 C -2.075446 37.096911 -26.637498 20.247924 -26.637498 20.247924 Z M -26.637498 20.247924 " stroke="#253237" stroke-width="2" stroke-opacity="1" stroke-miterlimit="10"/><path fill="#d4d4d4" d="M 1034.003906 455.238281 C 1041.441406 475.519531 1075.195312 463.144531 1067.761719 442.863281 C 1067.761719 442.863281 1021.148438 344.742188 1021.148438 344.742188 C 1021.148438 344.742188 996.613281 359.257812 996.613281 359.257812 C 996.613281 359.257812 1034.003906 455.238281 1034.003906 455.238281 Z M 1034.003906 455.238281 " fill-opacity="1" fill-rule="nonzero"/><path stroke-linecap="butt" transform="matrix(-0.750022, 0.000476376, 0.00047639, 0.75, 1015.303779, 399.996561)" fill="none" stroke-linejoin="miter" d="M -7.839436 -73.667539 C -7.839436 -73.667539 24.885408 -54.334153 24.885408 -54.334153 C 24.885408 -54.334153 -24.885964 73.671453 -24.885964 73.671453 " stroke="#253237" stroke-width="2" stroke-opacity="1" stroke-miterlimit="10"/><path stroke-linecap="round" transform="matrix(-0.750022, 0.000476376, 0.00047639, 0.75, 1051.788001, 460.250157)" fill="none" stroke-linejoin="round" d="M -23.709498 -17.120571 C -18.447573 10.100053 12.639288 17.116767 23.707164 -6.697561 " stroke="#253237" stroke-width="2" stroke-opacity="1" stroke-miterlimit="4"/><path stroke-linecap="round" transform="matrix(-0.750022, 0.000476376, 0.00047639, 0.75, 1039.74053, 383.879269)" fill="none" stroke-linejoin="round" d="M -24.754771 52.202755 C -24.754771 52.202755 24.755561 -52.198513 24.755561 -52.198513 " stroke="#253237" stroke-width="2" stroke-opacity="1" stroke-miterlimit="4"/><path stroke-linecap="round" transform="matrix(-0.750023, 0.000128255, 0.000128259, 0.75, 1120.882678, 350.150628)" fill-opacity="1" fill="#fbb040" fill-rule="nonzero" stroke-linejoin="round" d="M -6.292586 -66.345598 C -6.292586 -66.345598 -65.156241 50.549891 -65.156241 50.549891 C -65.156241 50.549891 13.281601 66.348978 13.281601 66.348978 C 13.281601 66.348978 65.153694 -63.342191 65.153694 -63.342191 C 65.153694 -63.342191 -6.292586 -66.345598 -6.292586 -66.345598 Z M -6.292586 -66.345598 " stroke="#253237" stroke-width="2" stroke-opacity="1" stroke-miterlimit="4"/><path stroke-linecap="round" transform="matrix(-0.750023, 0.000128255, 0.000128259, 0.75, 1068.199512, 349.726145)" fill-opacity="1" fill="#fbb040" fill-rule="nonzero" stroke-linejoin="round" d="M -5.088315 -62.769409 C -5.088315 -62.769409 56.961089 -67.519604 56.961089 -67.519604 C 56.961089 -67.519604 4.350349 67.52065 4.350349 67.52065 C 4.350349 67.52065 -56.960407 66.926968 -56.960407 66.926968 C -56.960407 66.926968 -5.088315 -62.769409 -5.088315 -62.769409 Z M -5.088315 -62.769409 " stroke="#253237" stroke-width="2" stroke-opacity="1" stroke-miterlimit="4"/><path stroke-linecap="round" transform="matrix(-0.750023, 0.000128255, 0.000128259, 0.75, 1024.677147, 345.004075)" fill-opacity="1" fill="#fbb040" fill-rule="nonzero" stroke-linejoin="round" d="M -1.065907 -61.213588 C -1.065907 -61.213588 53.67508 -73.827116 53.67508 -73.827116 C 53.67508 -73.827116 -3.367061 65.640979 -3.367061 65.640979 C -3.367061 65.640979 -53.676647 73.826666 -53.676647 73.826666 C -53.676647 73.826666 -1.065907 -61.213588 -1.065907 -61.213588 Z M -1.065907 -61.213588 " stroke="#253237" stroke-width="2" stroke-opacity="1" stroke-miterlimit="4"/><path stroke-linecap="butt" transform="matrix(-0.750022, 0.000293155, 0.000293163, 0.75, 1125.667222, 370.406838)" fill-opacity="1" fill="#ffffff" fill-rule="nonzero" stroke-linejoin="miter" d="M -32.946195 4.423552 C -27.340843 -5.438015 -19.620617 -14.394158 -10.905461 -22.918399 C -9.718451 -24.080322 -8.27093 -24.981929 -6.66175 -25.357558 C -4.042273 -25.962749 -2.094061 -25.05726 -0.702631 -22.891137 C 1.329797 -19.720056 0.841863 -15.537573 -1.5736 -12.646004 C -1.5736 -12.646004 -10.142254 -2.397862 -10.142254 -2.397862 C -5.148151 -3.774814 -0.570978 -5.859937 3.703921 -8.455358 C 9.218075 -11.796055 13.14291 -17.245507 14.874806 -23.454518 C 14.890404 -23.522232 14.911213 -23.58474 14.926813 -23.647246 C 16.549488 -29.470798 24.304008 -30.635287 27.555903 -25.5376 C 27.93633 -24.949207 28.295939 -24.324347 28.634723 -23.678646 C 32.945123 -15.393872 31.964707 -5.341404 26.712672 2.374191 C 22.381957 8.740468 16.363539 14.456363 7.766686 19.183682 C 7.766686 19.183682 -18.795749 30.636774 -18.795749 30.636774 C -18.795749 30.636774 -32.946195 4.423552 -32.946195 4.423552 Z M -32.946195 4.423552 " stroke="#253237" stroke-width="2" stroke-opacity="1" stroke-miterlimit="10"/><path fill="#d4d4d4" d="M 1211.75 461.570312 C 1227.628906 476.21875 1252.007812 449.792969 1236.128906 435.144531 C 1236.128906 435.144531 1149.847656 369.144531 1149.847656 369.144531 C 1149.847656 369.144531 1134.648438 393.261719 1134.648438 393.261719 C 1134.648438 393.261719 1211.75 461.570312 1211.75 461.570312 Z M 1211.75 461.570312 " fill-opacity="1" fill-rule="nonzero"/><path stroke-linecap="butt" transform="matrix(-0.750022, 0.000293155, 0.000293163, 0.75, 1173.195067, 415.360511)" fill="none" stroke-linejoin="miter" d="M 31.104857 -61.633472 C 31.104857 -61.633472 51.38244 -29.485144 51.38244 -29.485144 C 51.38244 -29.485144 -51.380944 61.633159 -51.380944 61.633159 " stroke="#253237" stroke-width="2" stroke-opacity="1" stroke-miterlimit="10"/><path stroke-linecap="round" transform="matrix(-0.750022, 0.000293155, 0.000293163, 0.75, 1228.687096, 456.013581)" fill="none" stroke-linejoin="round" d="M -14.827 -23.533149 C -22.587197 3.084471 1.857563 23.533252 22.58501 7.400148 " stroke="#253237" stroke-width="2" stroke-opacity="1" stroke-miterlimit="4"/><path stroke-linecap="round" transform="matrix(-0.750022, 0.000293155, 0.000293163, 0.75, 1184.263531, 395.470695)" fill="none" stroke-linejoin="round" d="M -45.873105 35.119509 C -45.873105 35.119509 45.872729 -35.119485 45.872729 -35.119485 " stroke="#253237" stroke-width="2" stroke-opacity="1" stroke-miterlimit="4"/><path stroke-linecap="round" transform="matrix(-0.750023, 0, 0, 0.75, 1084.940568, 200.166749)" fill-opacity="1" fill="#253237" fill-rule="nonzero" stroke-linejoin="round" d="M 4.759155 -21.139 C 9.20173 -7.232749 6.352857 6.871418 -2.329173 21.142252 C -2.329173 21.142252 -9.198758 -18.977541 -9.198758 -18.977541 C -9.198758 -18.977541 4.759155 -21.139 4.759155 -21.139 Z M 4.759155 -21.139 " stroke="#253237" stroke-width="2" stroke-opacity="1" stroke-miterlimit="4"/><path stroke-linecap="butt" transform="matrix(-0.750023, 0, 0, 0.75, 1119.086782, 218.245483)" fill-opacity="1" fill="#ffffff" fill-rule="nonzero" stroke-linejoin="miter" d="M -43.242364 -9.264811 C -43.242364 -9.264811 -42.846543 16.854982 -42.846543 16.854982 C -42.846543 16.854982 -40.617443 48.229984 -40.617443 48.229984 C -19.873276 62.802901 2.063564 70.172693 26.177421 64.49561 C 31.338724 63.27686 35.484433 59.433109 37.109384 54.381026 C 44.265419 32.131025 45.077894 1.29769 39.718681 -37.879395 C 21.208821 -70.171064 -19.743072 -68.202314 -45.080851 -41.556479 C -45.080851 -41.556479 -43.242364 -9.264811 -43.242364 -9.264811 Z M -43.242364 -9.264811 " stroke="#253237" stroke-width="2" stroke-opacity="1" stroke-miterlimit="10"/><path stroke-linecap="butt" transform="matrix(-0.750023, 0, 0, 0.75, 1158.529748, 218.321229)" fill-opacity="1" fill="#ffffff" fill-rule="nonzero" stroke-linejoin="miter" d="M 9.346674 -9.365806 C 4.27391 -17.766848 -9.814207 -12.251223 -5.527878 1.83732 C -0.960307 13.613362 4.346825 16.634195 9.81541 17.764404 C 9.81541 17.764404 9.346674 -9.365806 9.346674 -9.365806 Z M 9.346674 -9.365806 " stroke="#253237" stroke-width="2" stroke-opacity="1" stroke-miterlimit="10"/><path stroke-linecap="round" transform="matrix(-0.750023, 0, 0, 0.75, 1151.869508, 196.991993)" fill-opacity="1" fill="#253237" fill-rule="nonzero" stroke-linejoin="round" d="M 12.398555 -24.421617 C 22.643038 -8.635158 14.38287 22.484635 0.935358 30.630469 C 0.935358 30.630469 0.466622 19.073177 0.466622 19.073177 C -2.934317 15.526301 -6.606082 13.396093 -11.309065 16.786718 C -21.324389 -2.494533 -22.642058 -18.56745 -13.09547 -30.629951 C -13.09547 -30.629951 12.398555 -24.421617 12.398555 -24.421617 Z M 12.398555 -24.421617 " stroke="#253237" stroke-width="2" stroke-opacity="1" stroke-miterlimit="4"/><path stroke-linecap="round" transform="matrix(-0.750023, 0, 0, 0.75, 1116.568198, 170.342239)" fill-opacity="1" fill="#253237" fill-rule="nonzero" stroke-linejoin="round" d="M 44.761459 -25.727153 C 60.162037 -2.550068 52.198735 15.179099 37.048149 31.236392 C 24.230827 17.533266 1.564842 15.840558 -30.074831 25.069725 C -30.074831 25.069725 -60.162467 4.903057 -60.162467 4.903057 C -57.490672 -22.310486 -27.434285 -31.23757 -4.299565 -17.716736 C 20.694475 -7.32611 37.381472 -9.487569 44.761459 -25.727153 Z M 44.761459 -25.727153 " stroke="#253237" stroke-width="2" stroke-opacity="1" stroke-miterlimit="4"/><path stroke-linecap="round" transform="matrix(-0.750023, 0, 0, 0.75, 1101.407303, 224.175741)" fill="none" stroke-linejoin="round" d="M -1.967287 -19.796822 C -1.264183 -5.197863 1.891972 7.182346 7.480345 17.349013 C 2.089883 19.286513 -2.868302 19.79693 -7.482746 19.187555 " stroke="#253237" stroke-width="2" stroke-opacity="1" stroke-miterlimit="4"/><path stroke-linecap="round" transform="matrix(-0.750023, 0, 0, 0.75, 1123.591462, 208.298256)" fill="none" stroke-linejoin="round" d="M 7.22069 -2.5383 C 0.830257 -3.501841 -3.982098 -1.486216 -7.221584 3.498159 " stroke="#253237" stroke-width="2" stroke-opacity="1" stroke-miterlimit="4"/><path stroke-linecap="round" transform="matrix(-0.750023, 0, 0, 0.75, 1094.138039, 208.015483)" fill="none" stroke-linejoin="round" d="M 5.709922 1.942898 C 2.80376 -0.567519 -0.71176 -1.942519 -5.711609 -0.593561 " stroke="#253237" stroke-width="2" stroke-opacity="1" stroke-miterlimit="4"/><path stroke-linecap="round" transform="matrix(-0.750023, 0, 0, 0.75, 1120.37539, 219.008241)" fill-opacity="1" fill="#253237" fill-rule="nonzero" stroke-linejoin="round" d="M -2.931684 -0.000571309 C -2.931684 3.212971 -1.619223 5.817137 0.000519795 5.817137 C 1.620263 5.817137 2.932723 3.212971 2.932723 -0.000571309 C 2.932723 -3.214113 1.620263 -5.81828 0.000519795 -5.81828 C -1.619223 -5.81828 -2.931684 -3.214113 -2.931684 -0.000571309 Z M -2.931684 -0.000571309 " stroke="#253237" stroke-width="2" stroke-opacity="1" stroke-miterlimit="4"/><path stroke-linecap="round" transform="matrix(-0.750023, 0, 0, 0.75, 1094.138039, 216.4185)" fill-opacity="1" fill="#253237" fill-rule="nonzero" stroke-linejoin="round" d="M -2.321086 -0.000707683 C -2.321086 2.613876 -1.279451 4.728459 0.00176052 4.728459 C 1.282972 4.728459 2.319399 2.613876 2.319399 -0.000707683 C 2.319399 -2.610083 1.282972 -4.729875 0.00176052 -4.729875 C -1.279451 -4.729875 -2.321086 -2.610083 -2.321086 -0.000707683 Z M -2.321086 -0.000707683 " stroke="#253237" stroke-width="2" stroke-opacity="1" stroke-miterlimit="4"/><path stroke-linecap="round" transform="matrix(-0.750023, 0, 0, 0.75, 1117.847758, 248.509491)" fill="none" stroke-linejoin="round" d="M 10.630024 5.247763 C 2.494852 3.492554 -4.833052 0.393596 -10.629753 -5.252238 " stroke="#253237" stroke-width="2" stroke-opacity="1" stroke-miterlimit="4"/><path stroke-linecap="round" transform="matrix(-0.750023, 0.000146577, 0.000146582, 0.75, 999.513004, 320.588704)" fill-opacity="1" fill="#ffffff" fill-rule="nonzero" stroke-linejoin="round" d="M 14.409669 -15.704422 C 14.409669 -15.704422 5.909227 -19.275678 5.909227 -19.275678 C 0.341571 -19.863131 -5.329482 -16.533898 -8.901574 -12.861324 C -14.046221 -7.584277 -14.409568 -1.313372 -12.262473 5.472667 C -11.522456 7.805855 -10.173115 9.972259 -8.297816 11.7896 C -8.297816 11.7896 -0.291271 19.860953 -0.291271 19.860953 " stroke="#253237" stroke-width="2" stroke-opacity="1" stroke-miterlimit="4"/></svg>